<svg height="412pt" viewBox="-8 0 412 412.43174" width="412pt" xmlns="http://www.w3.org/2000/svg" xmlns:xlink="http://www.w3.org/1999/xlink"><linearGradient id="a"><stop offset="0" stop-color="#00efd1"/><stop offset="1" stop-color="#00acea"/></linearGradient><linearGradient id="b" gradientUnits="userSpaceOnUse" x1="198.303354" x2="198.303354" xlink:href="#a" y1="-39.863584" y2="456.493416"/><linearGradient id="c" gradientUnits="userSpaceOnUse" x1="204.890354" x2="204.890354" xlink:href="#a" y1="-39.863584" y2="456.493416"/><path d="m386.5625 139.425781h-269.933594l265.175782-51.070312c2.59375-.480469 4.890624-1.976563 6.378906-4.15625 1.488281-2.179688 2.042968-4.863281 1.539062-7.457031l-13.289062-68.675782c-1.058594-5.410156-6.304688-8.9375-11.714844-7.882812l-356.402344 68.921875c-5.421875 1.046875-8.96875 6.296875-7.917968 11.71875l13.113281 68.265625c-.019531.246094-.125.496094-.125.746094v253c0 5.523437 4.652343 9.589843 10.171875 9.589843h363c2.59375.085938 5.105468-.886719 6.960937-2.699219 1.855469-1.808593 2.894531-4.296874 2.871094-6.890624v-253c0-5.523438-4.300781-10.410157-9.828125-10.410157zm-10.171875 70h-34.101563l28.574219-50h5.527344zm-84.101563 0 28.574219-50h26.96875l-28.574219 50zm-40 0 28.574219-50h16.96875l-28.574219 50zm-50 0 28.574219-50h26.96875l-28.574219 50zm-50 0 28.574219-50h26.96875l-28.574219 50zm-50 0 28.574219-50h26.96875l-28.574219 50zm-50 0 28.574219-50h26.96875l-28.574219 50zm42.558594-136.675781-18.558594 54.515625-26.472656 5.117187 18.558594-54.511718zm49.089844-9.492188-18.558594 54.515626-26.472656 5.117187 18.558594-54.511719zm49.09375-9.492187-18.5625 54.515625-26.472656 5.117188 18.558594-54.511719zm49.089844-9.492187-18.558594 54.515624-26.472656 5.117188 18.558594-54.515625zm39.273437-7.59375-18.5625 54.515624-16.65625 3.21875 18.566407-54.511718zm49.097657-9.492188-18.5625 54.515625-26.476563 5.125 18.558594-54.515625zm-297.101563 132.238281h24.441406l-24.441406 42.878907zm334.800781-88.597656-33.648437 6.5 18.558593-54.515625 5.597657-1.082031zm-322.429687 11.414063-15.765625 46.300781-8.0625-41.699219zm-12.371094 310.183593v-163h343v163zm0 0" fill="url(#b)"/><path d="m298.390625 278.425781c0-5.523437-4.476563-10-10-10h-167c-5.523437 0-10 4.476563-10 10v57c0 5.523438 4.476563 10 10 10h167c5.523437 0 10-4.476562 10-10zm-20 47h-147v-37h147zm0 0" fill="url(#c)"/></svg>